<svg viewBox="0 0 800 600" xmlns="http://www.w3.org/2000/svg">
  <style>
    .entity {
      fill: #1e1e1e;
      stroke: #00ffff;
      stroke-width: 2;
      rx: 10;
      ry: 10;
    }
    .attribute {
      fill: #121212;
      stroke: #ff00ff;
      stroke-width: 1.5;
      rx: 5;
      ry: 5;
    }
    .relationship {
      fill: #1e1e1e;
      stroke: #00ff00;
      stroke-width: 2;
      rx: 5;
      ry: 5;
    }
    .text {
      fill: white;
      font-family: Arial, sans-serif;
      font-size: 12px;
      text-anchor: middle;
      dominant-baseline: middle;
    }
    .heading {
      fill: white;
      font-family: Arial, sans-serif;
      font-size: 14px;
      font-weight: bold;
      text-anchor: middle;
      dominant-baseline: middle;
    }
    .relationship-text {
      fill: #00ff00;
      font-family: Arial, sans-serif;
      font-size: 10px;
      text-anchor: middle;
    }
    .line {
      stroke: rgba(255, 255, 255, 0.5);
      stroke-width: 1;
    }
    .glow {
      filter: drop-shadow(0 0 5px #00ffff);
    }
  </style>
  
  <!-- Title -->
  <text x="400" y="30" class="heading" style="font-size: 20px; fill: #00ffff; text-shadow: 0 0 5px #00ffff">NeoLearn Database ER Diagram</text>
  
  <!-- Users Entity -->
  <rect x="50" y="100" width="120" height="60" class="entity glow" />
  <text x="110" y="130" class="heading">USERS</text>
  <ellipse cx="35" cy="100" rx="25" ry="15" class="attribute" />
  <text x="35" y="100" class="text">user_id</text>
  <ellipse cx="35" cy="140" rx="25" ry="15" class="attribute" />
  <text x="35" y="140" class="text">email</text>
  <ellipse cx="35" cy="180" rx="25" ry="15" class="attribute" />
  <text x="35" y="180" class="text">role</text>
  
  <!-- Courses Entity -->
  <rect x="350" y="100" width="120" height="60" class="entity glow" />
  <text x="410" y="130" class="heading">COURSES</text>
  <ellipse cx="335" cy="80" rx="25" ry="15" class="attribute" />
  <text x="335" y="80" class="text">course_id</text>
  <ellipse cx="385" cy="80" rx="25" ry="15" class="attribute" />
  <text x="385" y="80" class="text">title</text>
  <ellipse cx="435" cy="80" rx="25" ry="15" class="attribute" />
  <text x="435" y="80" class="text">price</text>
  
  <!-- Enrollment Entity -->
  <rect x="200" y="250" width="120" height="60" class="entity glow" />
  <text x="260" y="280" class="heading">ENROLLMENT</text>
  <ellipse cx="185" cy="250" rx="25" ry="15" class="attribute" />
  <text x="185" y="250" class="text">enroll_id</text>
  <ellipse cx="235" cy="230" rx="25" ry="15" class="attribute" />
  <text x="235" y="230" class="text">date</text>
  
  <!-- Course Content Entity -->
  <rect x="500" y="250" width="120" height="60" class="entity glow" />
  <text x="560" y="280" class="heading">CONTENT</text>
  <ellipse cx="560" cy="230" rx="25" ry="15" class="attribute" />
  <text x="560" y="230" class="text">content_id</text>
  <ellipse cx="610" cy="230" rx="25" ry="15" class="attribute" />
  <text x="610" y="230" class="text">type</text>
  
  <!-- Progress Entity -->
  <rect x="350" y="380" width="120" height="60" class="entity glow" />
  <text x="410" y="410" class="heading">PROGRESS</text>
  <ellipse cx="410" cy="360" rx="25" ry="15" class="attribute" />
  <text x="410" y="360" class="text">progress_id</text>
  <ellipse cx="450" cy="350" rx="25" ry="15" class="attribute" />
  <text x="450" y="350" class="text">percentage</text>
  
  <!-- Donations Entity -->
  <rect x="50" y="380" width="120" height="60" class="entity glow" />
  <text x="110" y="410" class="heading">DONATIONS</text>
  <ellipse cx="35" cy="380" rx="25" ry="15" class="attribute" />
  <text x="35" y="380" class="text">donation_id</text>
  <ellipse cx="35" cy="420" rx="25" ry="15" class="attribute" />
  <text x="35" y="420" class="text">amount</text>
  
  <!-- Notifications Entity -->
  <rect x="650" y="380" width="120" height="60" class="entity glow" />
  <text x="710" y="410" class="heading">NOTIFICATIONS</text>
  <ellipse cx="710" cy="360" rx="25" ry="15" class="attribute" />
  <text x="710" y="360" class="text">notif_id</text>
  
  <!-- Relationships -->
  <!-- Creates relationship -->
  <line x1="170" y1="130" x2="350" y2="130" class="line" />
  <polygon points="190,130 180,125 180,135" fill="#00ff00" />
  <text x="260" y="120" class="relationship-text">Creates</text>
  <text x="260" y="135" class="relationship-text">1:N</text>
  
  <!-- Enrolls relationship -->
  <line x1="110" y1="160" x2="260" y2="250" class="line" />
  <polygon points="250,240 260,250 270,240" fill="#00ff00" />
  <text x="170" y="200" class="relationship-text">Enrolls</text>
  <text x="170" y="215" class="relationship-text">N:M</text>
  
  <!-- Has relationship (Course-Content) -->
  <line x1="410" y1="160" x2="560" y2="250" class="line" />
  <polygon points="550,240 560,250 570,240" fill="#00ff00" />
  <text x="470" y="200" class="relationship-text">Has</text>
  <text x="470" y="215" class="relationship-text">1:N</text>
  
  <!-- Tracks relationship -->
  <line x1="260" y1="310" x2="410" y2="380" class="line" />
  <polygon points="400,370 410,380 420,370" fill="#00ff00" />
  <text x="320" y="340" class="relationship-text">Tracks</text>
  <text x="320" y="355" class="relationship-text">1:1</text>
  
  <!-- Completed relationship -->
  <line x1="500" y1="310" x2="410" y2="380" class="line" />
  <polygon points="420,370 410,380 400,370" fill="#00ff00" />
  <text x="470" y="340" class="relationship-text">Completed</text>
  <text x="470" y="355" class="relationship-text">N:M</text>
  
  <!-- Makes relationship -->
  <line x1="110" y1="160" x2="110" y2="380" class="line" />
  <polygon points="110,370 105,380 115,380" fill="#00ff00" />
  <text x="130" y="270" class="relationship-text">Makes</text>
  <text x="130" y="285" class="relationship-text">1:N</text>
  
  <!-- Receives relationship -->
  <line x1="170" y1="130" x2="680" y2="380" class="line" />
  <polygon points="670,370 680,380 690,370" fill="#00ff00" />
  <text x="400" y="250" class="relationship-text">Receives</text>
  <text x="400" y="265" class="relationship-text">1:N</text>
  
  <!-- Legend -->
  <rect x="630" y="500" width="150" height="90" fill="#1e1e1e" stroke="#00ffff" stroke-width="1" rx="5" ry="5" />
  <text x="705" y="520" class="heading" style="font-size: 12px">Legend</text>
  
  <rect x="640" y="530" width="20" height="15" class="entity" style="rx: 3; ry: 3;" />
  <text x="710" y="540" class="text" style="text-anchor: start">Entity</text>
  
  <ellipse cx="650" cy="560" rx="10" ry="7" class="attribute" />
  <text x="710" y="560" class="text" style="text-anchor: start">Attribute</text>
  
  <text x="710" y="580" class="text" style="text-anchor: start; fill: #00ff00">Relationship</text>
</svg>
